          <svg
            width="80px"
            height="80px"
            viewBox="-4.8 -4.8 57.60 57.60"
            id="b"
            xmlns="http://www.w3.org/2000/svg"
            fill="#fafafa"
            transform="matrix(1, 0, 0, 1, 0, 0)"
            stroke="#1876d2"
            strokeWidth="0.9600000000000002"
          >
            <g id="SVGRepo_bgCarrier" strokeWidth="0">
              <rect
                x="-4.8"
                y="-4.8"
                width="57.60"
                height="57.60"
                rx="28.8"
                fill="#fafafa"
                strokeWidth="0"
              />
            </g>
            <g id="SVGRepo_iconCarrier">
              <circle
                cx="24"
                cy="24"
                r="21.5"
                stroke="#1876d2"
                strokeWidth="2"
                fill="none"
              />
              <path
                d="m24.3718,29.8584c-1.1903,1.1903-3.05,1.1159-4.1659,0l-5.4306-5.4306c-.6695-.6695-1.711-.6695-2.3805,0l-.8927.8927c-.6695.6695-.6695,1.711,0,2.3805l5.505,5.505c1.1159,1.1159,2.9012,1.1159,4.0172,0l15.4736-15.4736c.6695-.6695.6695-1.711,0-2.3805l-.8927-.8927c-.6695-.6695-1.711-.6695-2.3805,0l-14.209,14.209"
                stroke="#1876d2"
                strokeWidth="2"
                fill="none"
              />
            </g>
          </svg>